<?xml version="1.0" standalone="no"?>
<!DOCTYPE svg PUBLIC "-//W3C//DTD SVG 20010904//EN"
 "http://www.w3.org/TR/2001/REC-SVG-20010904/DTD/svg10.dtd">
<svg version="1.0" xmlns="http://www.w3.org/2000/svg"
 width="942.000000pt" height="1037.000000pt" viewBox="0 0 942.000000 1037.000000"
 preserveAspectRatio="xMidYMid meet">
<metadata>
Created by potrace 1.16, written by Peter Selinger 2001-2019
</metadata>
<g transform="translate(0.000000,1037.000000) scale(0.100000,-0.100000)"
fill="#000000" stroke="none">
<path d="M150 10265 c0 -3 23 -258 50 -568 88 -982 136 -1524 275 -3082 75
-836 155 -1745 180 -2020 172 -1923 222 -2490 272 -3055 25 -294 47 -536 48
-537 1 -2 814 -228 1808 -503 1799 -498 1808 -500 1902 -500 88 0 115 6 397
84 167 47 492 137 723 201 694 192 1216 337 1680 465 242 67 548 152 680 189
l240 66 36 410 c53 590 103 1149 224 2508 24 276 76 858 115 1292 39 435 91
1016 115 1293 25 276 65 729 90 1007 25 278 65 732 90 1010 25 278 65 733 90
1012 25 280 50 555 55 613 6 58 10 108 10 113 0 4 -2043 7 -4540 7 -2497 0
-4540 -2 -4540 -5z m7380 -1917 c0 -18 -23 -275 -50 -570 -28 -296 -50 -540
-50 -543 0 -3 -976 -5 -2170 -5 -1237 0 -2170 -4 -2170 -9 0 -5 23 -255 50
-556 27 -301 50 -556 50 -566 0 -19 52 -19 2069 -19 l2069 0 -6 -62 c-3 -35
-73 -821 -156 -1748 l-151 -1684 -1165 -324 -1165 -323 -1155 321 c-635 177
-1159 326 -1165 331 -8 8 -163 1662 -165 1757 l0 32 570 0 569 0 5 -32 c3 -18
22 -222 42 -453 20 -231 39 -423 43 -426 3 -3 287 -81 631 -172 l625 -167 628
169 c345 93 630 170 632 172 2 2 31 310 64 684 34 374 64 704 67 733 l6 52
-1966 0 -1966 0 -4 23 c-5 24 -306 3371 -306 3400 0 16 142 17 2845 17 l2845
0 0 -32z"/>
</g>
</svg>
